HIERARCHY
ROOT Hips
{
    OFFSET 0.0 0.0 0.0
    CHANNELS 6 Xposition Yposition Zposition Zrotation Xrotation Yrotation
    JOINT LeftHipJoint
    {
        OFFSET 0.1 0.0 0.0
        CHANNELS 3 Zrotation Xrotation Yrotation
        JOINT LeftUpLeg
        {
            OFFSET 125.05498929282243 0.0 0.0
            CHANNELS 3 Zrotation Xrotation Yrotation
            JOINT LeftLeg
            {
                OFFSET 0.0 0.0 -420.52248484113414
                CHANNELS 3 Zrotation Xrotation Yrotation
                JOINT LeftFoot
                {
                    OFFSET 0.0 0.0 -403.2806810119385
                    CHANNELS 3 Zrotation Xrotation Yrotation
                    End Site
                    {
                        OFFSET 0.0 -0.1 0.0
                    }
                }
            }
        }
    }
    JOINT LowerBack
    {
        OFFSET 0.0 0.0 0.1
        CHANNELS 3 Zrotation Xrotation Yrotation
        JOINT Spine
        {
            OFFSET 0.0 0.0 217.6024632797682
            CHANNELS 3 Zrotation Xrotation Yrotation
            JOINT Spine1
            {
                OFFSET 0.0 0.0 251.46159938192164
                CHANNELS 3 Zrotation Xrotation Yrotation
                JOINT LeftShoulder
                {
                    OFFSET 0.1 0.0 0.0
                    CHANNELS 3 Zrotation Xrotation Yrotation
                    JOINT LeftArm
                    {
                        OFFSET 137.66002775491023 0.0 0.0
                        CHANNELS 3 Zrotation Xrotation Yrotation
                        JOINT LeftForeArm
                        {
                            OFFSET 263.32451024557025 0.0 0.0
                            CHANNELS 3 Zrotation Xrotation Yrotation
                            JOINT LeftHand
                            {
                                OFFSET 243.32835399118045 0.0 0.0
                                CHANNELS 3 Zrotation Xrotation Yrotation
                                End Site
                                {
                                    OFFSET 0.1 0.0 0.0
                                }
                            }
                        }
                    }
                }
                JOINT Neck
                {
                    OFFSET 0.0 0.0 0.1
                    CHANNELS 3 Zrotation Xrotation Yrotation
                    JOINT Neck1
                    {
                        OFFSET 0.0 0.0 103.36722239803215
                        CHANNELS 3 Zrotation Xrotation Yrotation
                        End Site
                        {
                            OFFSET 0.0 0.0 114.13622282503478
                        }
                    }
                }
                JOINT RightShoulder
                {
                    OFFSET -0.1 0.0 0.0
                    CHANNELS 3 Zrotation Xrotation Yrotation
                    JOINT RightArm
                    {
                        OFFSET -137.66002775491023 0.0 0.0
                        CHANNELS 3 Zrotation Xrotation Yrotation
                        JOINT RightForeArm
                        {
                            OFFSET -263.32451024557025 0.0 0.0
                            CHANNELS 3 Zrotation Xrotation Yrotation
                            JOINT RightHand
                            {
                                OFFSET -243.32835399118045 0.0 0.0
                                CHANNELS 3 Zrotation Xrotation Yrotation
                                End Site
                                {
                                    OFFSET -0.1 0.0 0.0
                                }
                            }
                        }
                    }
                }
            }
        }
    }
    JOINT RightHipJoint
    {
        OFFSET -0.1 0.0 0.0
        CHANNELS 3 Zrotation Xrotation Yrotation
        JOINT RightUpLeg
        {
            OFFSET -125.05498929282243 0.0 0.0
            CHANNELS 3 Zrotation Xrotation Yrotation
            JOINT RightLeg
            {
                OFFSET 0.0 0.0 -420.52248484113414
                CHANNELS 3 Zrotation Xrotation Yrotation
                JOINT RightFoot
                {
                    OFFSET 0.0 0.0 -403.2806810119385
                    CHANNELS 3 Zrotation Xrotation Yrotation
                    End Site
                    {
                        OFFSET 0.0 -0.1 0.0
                    }
                }
            }
        }
    }
}
MOTION
Frames: 4
Frame Time: 0.03333333333333333
0.0 0.0 824.0573981545823 27.256664677051244 2.6957553922303945 3.188270989642386 0.0 0.0 -1.4908850069360235e-16 -0.881268727708981 -14.415438393632497 -0.2814189085432943 1.3423082943347928 22.329366481574443 -0.4439347226061668 1.3793457181406746e-33 -1.987846675914698e-16 7.951386703658792e-16 0.0 0.0 -1.4908850069360235e-16 0.15394391598551985 2.5624554844318532 2.109879299309703 2.429767327972971 1.2092985305484532e-15 7.696719792384359e-16 3.4483642953516864e-34 -1.987846675914698e-16 1.987846675914698e-16 -26.97578557618674 16.030286905697874 71.42568985076949 -51.796990625086465 5.55678734033264e-15 -1.1444516755319585e-14 0.0 0.0 0.0 3.4483642953516864e-34 -1.987846675914698e-16 1.987846675914698e-16 -5.689797310449701 -4.681715824165818 -5.506008366224679 3.4483642953516864e-34 -1.987846675914698e-16 1.987846675914698e-16 26.070351605454963 7.865576450368186 -79.45787227287721 31.189394786686755 2.208439675118446e-15 -3.918501035462632e-15 0.0 0.0 3.1805546814635164e-15 0.0 0.0 -1.4908850069360235e-16 -0.9288282567855554 -15.063804113062092 -3.5052386449468327 0.030100065840581 28.7997700175142 0.5175958985592782 0.0 0.0 7.951386703658792e-16
0.0 0.0 824.0573981545823 27.36202560245232 2.6576580764849917 3.0914272995511736 0.0 0.0 -1.987846675914698e-16 -0.869777128431383 -14.308622604385983 -0.22490079275081243 1.3457737401836865 22.161346321016694 -0.41629077585193325 0.0 0.0 0.0 0.0 0.0 -1.987846675914698e-16 0.1610804126269971 2.6955205729049947 2.3361018390239505 2.252394837847821 -1.192477610073131e-15 2.3442183654994396e-17 0.0 0.0 -3.975693351829396e-16 -26.100360200308643 15.013805434446006 70.45592665275821 -53.581161069145374 9.239778526893062e-16 -8.886352454636884e-15 0.0 0.0 1.5902773407317584e-15 0.0 0.0 -3.975693351829396e-16 -5.521519423915883 -4.759289733692774 -5.487792677366885 0.0 0.0 -3.975693351829396e-16 25.77824953285081 7.767058522197783 -79.51381795224027 31.317433293362456 6.6121799190992874e-15 -1.1762898545404998e-14 0.0 0.0 1.5902773407317584e-15 0.0 0.0 -1.987846675914698e-16 -0.916552955712094 -14.950486218704157 -3.4348929679206606 0.0569041320412896 28.650085945943918 0.5860253283954775 0.0 0.0 -7.951386703658792e-16
0.0 0.0 824.0573981545823 27.4893735228374 2.631030237238778 2.9945392437807876 0.0 0.0 9.93923337957349e-17 -0.857689510561655 -14.135332321412637 -0.19676560176382993 1.3301583478763446 21.804832107851556 -0.308018858270189 0.0 0.0 3.975693351829396e-16 0.0 0.0 9.93923337957349e-17 0.1683661967698441 2.8210682987034463 2.614733175219475 2.24296213358563 1.0248583114003925e-15 1.5705193611460787e-15 -3.1805546814635168e-15 1.987846675914698e-16 -3.975693351829396e-16 -25.419487198596347 14.109518409154424 69.45585241884791 -56.01001987092435 -7.093771245089759e-15 1.3338629497346703e-14 0.0 0.0 -7.951386703658792e-16 -3.1805546814635168e-15 1.987846675914698e-16 -3.975693351829396e-16 -5.487944242534318 -4.7903659661660845 -5.519879848044908 -3.1805546814635168e-15 1.987846675914698e-16 -3.975693351829396e-16 25.729949586141597 7.338158776296673 -79.54877641223077 31.289257390363478 -8.33047212255815e-15 5.635824254984928e-15 0.0 0.0 -1.5902773407317584e-15 0.0 0.0 9.93923337957349e-17 -0.9071430572970843 -14.823996174296111 -3.3804714726771667 0.08220237321163522 28.451185520290377 0.6516899284443426 0.0 0.0 0.0
0.0 0.0 824.0573981545823 27.557956627288267 2.6744565600664734 2.9391656916870055 0.0 0.0 -9.93923337957349e-17 -0.8621267671454863 -14.124603000243896 -0.22962521726687343 1.3055857176342225 21.51203366369901 -0.16068417235369603 0.0 0.0 3.975693351829396e-16 0.0 0.0 -9.93923337957349e-17 0.17605249184688285 2.9324157553210544 2.8407879210204388 2.214099594342301 3.840611566908923e-17 1.9874756293409806e-15 0.0 0.0 3.975693351829396e-16 -25.099050001119576 13.240760419671089 68.45113963773923 -58.25601701527389 -2.625401086620091e-16 -6.062950879239598e-15 0.0 0.0 -3.1805546814635168e-15 0.0 0.0 3.975693351829396e-16 -5.564932546866666 -4.811554945278615 -5.509806217390309 0.0 0.0 3.975693351829396e-16 25.917379509855788 6.882198969986976 -79.36624267960708 31.432525274718667 -4.4002415458881544e-15 7.846355777816588e-15 -1.7655625192200634e-31 6.3611093629270335e-15 3.1805546814635168e-15 0.0 0.0 -9.93923337957349e-17 -0.9056724729425282 -14.719151911085268 -3.323201884179504 0.12253064565670357 28.25547872708113 0.5936170345539488 1.3793457181406746e-33 -1.987846675914698e-16 7.951386703658792e-16
